<?xml version="1.0" encoding="UTF-8" standalone="no"?>
<svg width="448px" height="85px" viewBox="0 0 448 85" version="1.1" xmlns="http://www.w3.org/2000/svg" xmlns:xlink="http://www.w3.org/1999/xlink">
    <!-- Generator: Sketch 3.8.3 (29802) - http://www.bohemiancoding.com/sketch -->
    <title>Amazon.com-Logo</title>
    <desc>Created with Sketch.</desc>
    <defs></defs>
    <g id="Welcome" stroke="none" stroke-width="1" fill="none" fill-rule="evenodd">
        <g id="Desktop-HD" transform="translate(-255.000000, -1021.000000)" fill="#221F1F">
            <g id="SECTION-2" transform="translate(144.000000, 878.000000)">
                <g id="Amazon.com-Logo" transform="translate(111.000000, 143.000000)">
                    <g id="layer1" transform="translate(0.287292, 0.095088)">
                        <g id="g1967" transform="translate(0.038099, 0.037841)">
                            <path d="M174.378303,66.1237494 C158.055161,78.1542825 134.395763,84.5730067 114.025463,84.5730067 C85.4630143,84.5730067 59.7494818,74.0096197 40.2962003,56.4406481 C38.7678185,55.0590861 40.1372432,53.1762664 41.9713107,54.2521614 C62.9651932,66.4660854 88.9232827,73.8140011 115.737259,73.8140011 C133.821091,73.8140011 153.714545,70.0727937 172.006249,62.3091949 C174.76957,61.135479 177.080485,64.1186629 174.378303,66.1237494" id="path8"></path>
                            <path d="M181.554662,58.0468411 C179.476052,55.3815426 167.762517,56.7875505 162.504876,57.4110843 C160.903123,57.6067029 160.65859,56.2129225 162.101376,55.2103699 C171.430638,48.644933 186.738941,50.5399849 188.524095,52.74069 C190.309239,54.9536273 188.059466,70.2974432 179.292647,77.6208944 C177.94767,78.7456999 176.663827,78.146626 177.26296,76.6550294 C179.231514,71.74012 183.645492,60.7243672 181.554662,58.0468411" id="path10"></path>
                            <path d="M162.774743,9.2955021 L162.774743,2.91345607 C162.774743,1.947591 163.508367,1.29960663 164.388715,1.29960663 L192.963382,1.29960663 C193.880421,1.29960663 194.614045,1.95981861 194.614045,2.91345607 L194.614045,8.37854283 C194.601826,9.2955021 193.831511,10.4936639 192.462073,12.3887159 L177.655089,33.5277222 C183.157277,33.3932417 188.965137,34.2123847 193.953783,37.0244006 C195.078674,37.6601574 195.38435,38.5893443 195.469941,39.5063129 L195.469941,46.3162742 C195.469941,47.245461 194.442864,48.333579 193.366882,47.7711832 C184.575611,43.1619223 172.898758,42.6606507 163.178233,47.820089 C162.187842,48.3580388 161.148542,47.2821392 161.148542,46.3529523 L161.148542,39.8853223 C161.148542,38.8461009 161.160761,37.0733018 162.200062,35.4961305 L179.354651,10.8971286 L164.425396,10.8971286 C163.508367,10.8971286 162.774743,10.2491489 162.774743,9.2955021" id="path12"></path>
                            <path d="M58.3309319,48.6355988 L49.6374844,48.6355988 C48.8060505,48.5744747 48.1457836,47.9509409 48.0846455,47.1562345 L48.0846455,2.54304565 C48.0846455,1.65053695 48.8304983,0.941414502 49.7597559,0.941414502 L57.8663031,0.941414502 C58.7099795,0.978069369 59.382461,1.62607705 59.4436037,2.43300177 L59.4436037,8.2648797 L59.6025562,8.2648797 C61.7178383,2.62862031 65.6916309,0 71.0470957,0 C76.4881413,0 79.8872669,2.62862031 82.3326824,8.2648797 C84.4357406,2.62862031 89.2165241,0 94.3396743,0 C97.9833428,0 101.969369,1.50381488 104.402556,4.87823115 C107.153648,8.63165688 106.5912,14.084516 106.5912,18.8649449 L106.578976,47.021754 C106.578976,47.9142627 105.833123,48.6355988 104.903866,48.6355988 L96.2226373,48.6355988 C95.3545224,48.5744747 94.6575792,47.8775845 94.6575792,47.021754 L94.6575792,23.3763896 C94.6575792,21.4935652 94.8287509,16.798725 94.4130362,15.0137029 C93.7650025,12.0183054 91.8208968,11.1746932 89.3021146,11.1746932 C87.1990564,11.1746932 84.9981838,12.5807012 84.1056072,14.8303167 C83.2130305,17.0799275 83.298621,20.8455715 83.298621,23.3763896 L83.298621,47.021754 C83.298621,47.9142627 82.5527683,48.6355988 81.6235106,48.6355988 L72.9422919,48.6355988 C72.0619438,48.5744747 71.3772245,47.8775845 71.3772245,47.021754 L71.3650006,23.3763896 C71.3650006,18.4003515 72.184206,11.0768863 66.0095405,11.0768863 C59.7614993,11.0768863 60.0060422,18.2169512 60.0060422,23.3763896 L60.0060422,47.021754 C60.0060422,47.9142627 59.2601895,48.6355988 58.3309319,48.6355988" id="path14"></path>
                            <path d="M219.049629,5.30175052e-14 C231.949193,5.30175052e-14 238.930849,11.0768863 238.930849,25.161407 C238.930849,38.7691019 231.215559,49.5647857 219.049629,49.5647857 C206.382375,49.5647857 199.4863,38.4878994 199.4863,24.6845859 C199.4863,10.7956837 206.467965,0 219.049629,0 M219.122986,9.10848261 C212.716006,9.10848261 212.312506,17.8379418 212.312506,23.2785826 C212.312506,28.7314418 212.226916,40.3707284 219.049629,40.3707284 C225.786747,40.3707284 226.104651,30.9810573 226.104651,25.2592092 C226.104651,21.4935652 225.945699,16.9943435 224.808575,13.4243041 C223.830408,10.318872 221.886311,9.10848261 219.122986,9.10848261" id="path16"></path>
                            <path d="M255.855626,48.6355988 L247.198859,48.6355988 C246.33073,48.5744747 245.633787,47.8775845 245.633787,47.021754 L245.621568,2.39632358 C245.69493,1.57717125 246.41633,0.941414502 247.296678,0.941414502 L255.354325,0.941414502 C256.112397,0.978069369 256.735978,1.49159193 256.907164,2.18848209 L256.907164,9.01066634 L257.066107,9.01066634 C259.499303,2.90982283 262.910648,0 268.914142,0 C272.814577,0 276.617203,1.40600795 279.062618,5.25724061 C281.336853,8.82727542 281.336853,14.8303167 281.336853,19.1461381 L281.336853,47.2296002 C281.239039,48.012065 280.517638,48.6355988 279.661752,48.6355988 L270.943843,48.6355988 C270.149076,48.5744747 269.488814,47.9876191 269.403232,47.2296002 L269.403232,22.9973801 C269.403232,18.1191489 269.965676,10.9790747 263.962177,10.9790747 C261.8469,10.9790747 259.90279,12.3973149 258.936851,14.5491095 C257.71415,17.275546 257.555198,19.9897503 257.555198,22.9973801 L257.555198,47.021754 C257.542978,47.9142627 256.784892,48.6355988 255.855635,48.6355988" id="path18"></path>
                            <path d="M286.558496,45.6464911 C286.558496,43.3968755 288.47814,41.5874122 290.837965,41.5874122 C293.19779,41.5874122 295.117438,43.3968755 295.117438,45.6464911 C295.117438,47.8838696 293.19779,49.7177975 290.837965,49.7177975 C288.47814,49.7177975 286.558496,47.8838696 286.558496,45.6464911" id="path20"></path>
                            <path d="M378.493627,48.916806 C377.588826,48.8801045 376.879654,48.1832376 376.879654,47.3029566 L376.879654,2.68975839 C376.928564,1.89505196 377.60105,1.27151816 378.432493,1.22262169 L381.623757,1.22262169 C382.50411,1.22262169 383.213277,1.85837377 383.286639,2.68975839 L383.286639,9.19406659 C385.560878,4.03462825 389.791447,0 395.134678,0 L395.464807,0 L395.782712,0 C401.456072,0 405.60105,4.18134099 407.141665,10.2577339 C409.550395,4.25469736 414.074416,0 420.041229,0 L420.346905,0 L420.701491,0 C424.919832,0 428.979219,2.71420429 431.082278,6.84663948 C433.111969,10.7956837 433.038607,16.0529244 433.038607,20.4665621 L433.026388,47.3029566 C433.038607,48.1587777 432.341673,48.8556679 431.473554,48.916806 L427.658704,48.916806 C426.827261,48.8801045 426.154775,48.2932722 426.044732,47.5230257 L426.044732,20.4665621 C426.044732,17.275546 426.203684,13.8888975 424.907612,10.9790747 C423.587088,8.00812309 421.056082,6.14974931 418.341676,6.01526886 C415.30936,6.16197693 412.521587,8.37491426 410.711976,11.3580935 C408.36438,15.2093215 408.44997,18.6815447 408.44997,23.180771 L408.44997,47.5474716 C408.339928,48.2810399 407.691889,48.8556679 406.897132,48.916806 L403.106739,48.916806 C402.201934,48.8801045 401.480538,48.1832376 401.480538,47.3029566 L401.4561,18.6815447 C401.4561,16.0529244 401.297147,12.9597106 400.08667,10.6000652 C398.680555,7.91032081 396.161778,6.14974931 393.520729,6.01526886 C390.781866,6.17420921 388.018545,8.2648797 386.38012,10.6978815 C384.264834,13.8033135 383.861343,17.6423232 383.861343,21.5913722 L383.861343,47.3029566 C383.861343,48.1587777 383.1644,48.8556679 382.296276,48.916806 L378.493654,48.916806" id="path22"></path>
                            <path d="M352.506898,49.8459929 C340.169782,49.8459929 334.643141,37.2652871 334.643141,24.6845859 C334.643141,11.4558957 341.135721,0 353.558427,0 L353.876332,0 L354.218689,0 C366.299039,0 372.314761,12.2016964 372.314761,24.7823975 C372.314761,38.10889 365.651005,49.8459929 353.154937,49.8459929 L352.837032,49.8459929 L352.506898,49.8459929 M353.411703,43.7451494 C357.471091,43.6106549 360.674583,41.0920692 362.569784,36.8985099 C364.269347,33.1328519 364.599476,28.8170211 364.599476,24.6845859 C364.599476,20.1853595 364.110395,15.4905286 361.995108,11.6392866 C360.099912,8.27709799 356.84751,6.13753103 353.399475,6.01526886 C349.560173,6.14974931 346.124366,8.75391905 344.400351,12.7640921 C342.847512,16.2363246 342.370655,20.8455715 342.370655,24.6845859 C342.370655,29.0004167 342.933098,33.9886824 344.718251,37.7421128 C346.4545,41.29992 349.792487,43.6106549 353.411703,43.7451494" id="path24"></path>
                            <path d="M314.010183,43.5495215 C319.549053,43.3783489 322.459092,38.9402652 323.657345,33.1939713 C323.901888,32.4726306 324.452108,31.9224531 325.259094,31.9224531 L328.914991,31.9102348 C329.78311,31.9468897 330.577873,32.607125 330.504511,33.4140591 C328.817172,43.2071902 322.911497,49.8459929 314.499269,49.8459929 L314.156912,49.8459929 L313.839007,49.8459929 C301.587472,49.8459929 296.305383,37.5464896 296.305383,25.0635907 C296.305383,12.6785174 301.660843,0 313.912369,0 L314.242498,0 L314.572631,0 C323.082674,0 329.147305,6.55321401 330.46783,16.3463592 C330.46783,17.0799275 329.78311,17.7156796 328.976124,17.8012636 L325.149051,17.7523578 C324.342065,17.6423232 323.816298,16.9576653 323.694026,16.1874188 C322.776997,10.7223274 319.634638,6.36982775 314.40145,6.19865511 C306.074808,6.46763002 303.702763,16.7131363 303.702763,24.5989973 C303.702763,32.1914374 305.68355,43.2805559 314.010183,43.5495308" id="path26"></path>
                            <path d="M139.979204,27.7533491 C139.979204,31.1399883 140.064794,33.9642272 138.353003,36.9718616 C136.971345,39.4170956 134.770472,40.9209105 132.337285,40.9209105 C128.999293,40.9209105 127.042963,38.3778649 127.042963,34.6244391 C127.042963,27.2153993 133.682262,25.8705247 139.979204,25.8705247 L139.979204,27.7533491 M148.746018,48.9412519 C148.171351,49.4547511 147.339903,49.4914293 146.691869,49.1491027 C143.806277,46.7527791 143.280515,45.6402013 141.703224,43.3539123 C136.934664,48.2199158 133.547758,49.6748202 127.373088,49.6748202 C120.04907,49.6748202 114.363481,45.1633756 114.363481,36.1282633 C114.363481,29.073773 118.178335,24.2688983 123.631609,21.9214805 C128.351259,19.8430283 134.941644,19.4762511 139.979204,18.9016231 L139.979204,17.7768177 C139.979204,15.7105931 140.138156,13.2653637 138.915451,11.4803556 C137.863922,9.87872448 135.834221,9.2185125 134.036848,9.2185125 C130.723304,9.2185125 127.776588,10.9179459 127.055183,14.4390749 C126.908459,15.2215537 126.333792,15.9918003 125.539025,16.0284785 L117.114573,15.1237375 C116.405401,14.9648064 115.610644,14.3901691 115.818506,13.3020512 C117.750383,3.08099546 126.994054,0 135.259549,0 C139.490122,0 145.016759,1.12480542 148.354751,4.32805373 C152.585315,8.27709799 152.181824,13.5465662 152.181824,19.2806326 L152.181824,32.8271988 C152.181824,36.8985099 153.869159,38.683518 155.458678,40.8842323 C156.008902,41.6666972 156.131174,42.6081117 155.421974,43.1949673 C153.649049,44.6743362 150.494462,47.4252187 148.758218,48.9657118 L148.745999,48.9412286" id="path28"></path>
                            <path d="M25.6157233,27.7533491 C25.6157233,31.1399883 25.7013045,33.9642272 23.989522,36.9718616 C22.6078548,39.4170956 20.4192107,40.9209105 17.9737952,40.9209105 C14.635803,40.9209105 12.6917019,38.3778649 12.6917019,34.6244391 C12.6917019,27.2153993 19.3310006,25.8705247 25.6157233,25.8705247 L25.6157233,27.7533491 M34.3825327,48.9412519 C33.807861,49.4547511 32.976413,49.4914293 32.3283793,49.1491027 C29.4427967,46.7527791 28.9292537,45.6402013 27.3397339,43.3539123 C22.5711738,48.2199158 19.1965099,49.6748202 13.0096021,49.6748202 C5.69780792,49.6748202 0,45.1633756 0,36.1282633 C0,29.073773 3.82707344,24.2688983 9.26811919,21.9214805 C13.9877693,19.8430283 20.5781632,19.4762511 25.6157233,18.9016231 L25.6157233,17.7768177 C25.6157233,15.7105931 25.7746758,13.2653637 24.5641942,11.4803556 C23.5004314,9.87872448 21.4707445,9.2185125 19.6855865,9.2185125 C16.3720561,9.2185125 13.4130975,10.9179459 12.6917019,14.4390749 C12.5449733,15.2215537 11.9703016,15.9918003 11.1877725,16.0284785 L2.75109191,15.1237375 C2.04192014,14.9648064 1.25938642,14.3901691 1.45501985,13.3020512 C3.3991256,3.08099546 12.6305638,0 20.8960727,0 C25.1266327,0 30.653269,1.12480542 33.9912612,4.32805373 C38.2218347,8.27709799 37.8183346,13.5465662 37.8183346,19.2806326 L37.8183346,32.8271988 C37.8183346,36.8985099 39.5056782,38.683518 41.0951981,40.8842323 C41.6576413,41.6666972 41.7799127,42.6081117 41.070741,43.1949673 C39.2978162,44.6743362 36.1432336,47.4252187 34.4069805,48.9657118 L34.3825327,48.9412286" id="path30"></path>
                            <path d="M442.508628,2.03317498 C444.599458,2.03317498 446.335702,3.72039011 446.335702,5.84773879 C446.335702,7.92617701 444.623915,9.67452089 442.508628,9.67452089 C440.405575,9.67452089 438.693783,7.96285519 438.693783,5.84773879 C438.693783,3.69593022 440.430027,2.03317498 442.508628,2.03317498 M442.520848,1.29960663 C440.075432,1.29960663 437.96015,3.28024257 437.96015,5.85995708 C437.96015,8.39077045 440.038751,10.4080892 442.520848,10.4080892 C445.015168,10.4080892 447.069317,8.36632454 447.069317,5.85995708 C447.069317,3.28024257 444.978492,1.29960663 442.520848,1.29960663 M440.809056,8.41522102 L441.787223,8.41522102 L441.787223,6.36122871 L442.692029,6.36122871 C443.04661,6.36122871 443.144429,6.50795077 443.217791,6.80137158 C443.217791,6.87472795 443.388972,8.17070601 443.401196,8.41522102 L444.489406,8.41522102 C444.35491,8.17070601 444.281544,7.47381584 444.232639,7.05811887 C444.13482,6.41013451 444.08591,5.95776868 443.388972,5.90886288 C443.743553,5.78660071 444.35491,5.59098217 444.35491,4.649577 C444.35491,3.30469314 443.168881,3.30469314 442.557529,3.30469314 L440.809056,3.30469314 L440.809056,8.41522102 M441.762771,4.12384548 L442.581981,4.12384548 C442.850976,4.12384548 443.340062,4.12384548 443.340062,4.82073564 C443.340062,5.08971055 443.217791,5.5420857 442.557529,5.5420857 L441.762771,5.5420857 L441.762771,4.12384548" id="path32"></path>
                        </g>
                    </g>
                </g>
            </g>
        </g>
    </g>
</svg>