<?xml version="1.0" standalone="no"?>
<!DOCTYPE svg PUBLIC "-//W3C//DTD SVG 20010904//EN"
 "http://www.w3.org/TR/2001/REC-SVG-20010904/DTD/svg10.dtd">
<svg version="1.0" xmlns="http://www.w3.org/2000/svg"
 width="300.000000pt" height="300.000000pt" viewBox="0 0 300.000000 300.000000"
 preserveAspectRatio="xMidYMid meet">
<metadata>
Created by potrace 1.11, written by Peter Selinger 2001-2013
</metadata>
<g transform="translate(0.000000,300.000000) scale(0.100000,-0.100000)"
fill="#000000" stroke="none">
<path d="M2119 2970 c-1 -3 -1 -9 0 -14 1 -5 -5 -6 -14 -2 -9 3 -14 2 -10 -3
3 -5 -11 -31 -30 -58 l-36 -48 37 40 37 40 -20 -35 c-11 -19 -18 -41 -16 -47
3 -7 0 -13 -7 -13 -6 0 -8 5 -4 12 4 6 3 8 -3 5 -6 -4 -8 -18 -5 -33 3 -19 7
-22 13 -12 6 9 9 9 9 1 0 -6 -5 -15 -11 -19 -8 -4 -7 -9 2 -15 8 -5 9 -9 4 -9
-6 0 -10 -17 -11 -37 0 -21 1 -32 3 -25 3 6 9 12 14 12 4 0 5 -7 2 -17 -5 -12
-3 -14 8 -9 8 4 6 1 -4 -7 -16 -13 -16 -15 -1 -21 12 -5 14 -10 5 -19 -8 -10
-7 -17 2 -27 10 -10 9 -11 -3 -5 -13 8 -13 6 -2 -7 8 -10 9 -17 3 -20 -7 -2
-5 -14 4 -32 17 -31 20 -50 5 -26 -7 12 -9 10 -8 -7 1 -11 7 -19 13 -16 7 2
12 -3 12 -11 0 -8 -4 -13 -9 -10 -4 3 -8 0 -8 -5 0 -6 5 -11 10 -11 6 0 10 -5
10 -11 0 -5 -6 -7 -12 -3 -7 4 -10 4 -6 -1 4 -4 2 -15 -5 -24 -11 -14 -10 -14
6 -2 18 14 18 13 8 -38 -1 -2 -7 2 -14 8 -16 13 -28 5 -21 -14 3 -7 0 -16 -7
-21 -8 -4 -10 -3 -5 4 4 7 2 12 -4 12 -6 0 -8 5 -4 12 4 6 3 8 -4 5 -5 -4 -8
-17 -5 -28 5 -19 4 -20 -17 -9 -12 7 -20 7 -16 2 3 -6 3 -12 -1 -15 -5 -2 -1
-2 7 0 11 2 11 0 -2 -10 -10 -8 -15 -17 -11 -21 4 -4 0 -4 -10 0 -9 3 -14 11
-11 18 3 6 -1 3 -9 -6 -8 -10 -16 -17 -18 -15 -2 1 2 -3 9 -9 10 -9 10 -13 -2
-17 -18 -7 -24 1 -21 31 1 13 -4 22 -12 22 -8 0 -11 -4 -8 -10 3 -5 1 -10 -4
-10 -17 0 -13 18 7 29 16 10 16 10 -2 11 -15 0 -17 6 -14 35 3 26 0 34 -10 32
-16 -2 -26 30 -12 38 5 3 7 -4 5 -15 -2 -11 0 -18 5 -15 11 7 5 41 -8 38 -6
-1 -13 5 -16 13 -5 12 -2 15 11 10 15 -6 16 -5 1 11 -8 10 -13 24 -11 31 3 6
0 12 -7 12 -6 0 -8 -6 -4 -12 5 -10 3 -10 -7 0 -13 12 -15 23 -18 95 -1 15 -4
26 -8 26 -5 -1 -15 -1 -23 1 -11 1 -9 4 5 10 19 8 19 9 1 9 -16 1 -17 4 -8 13
19 19 14 33 -6 15 -15 -14 -19 -15 -19 -2 0 8 4 12 9 9 4 -3 8 1 8 9 0 8 -9
17 -20 20 -13 3 -20 14 -20 30 0 15 -9 32 -22 41 -13 10 -17 16 -9 16 8 0 11
3 8 6 -4 4 -13 1 -22 -6 -11 -9 -15 -9 -15 -1 0 7 -4 10 -9 6 -5 -3 -13 0 -17
6 -4 8 -9 7 -15 -2 -6 -10 -9 -10 -9 -2 0 6 5 15 10 18 13 8 3 25 -13 25 -9 0
-8 -3 1 -8 8 -6 2 -9 -18 -9 -24 0 -28 3 -16 9 9 5 16 14 16 21 0 8 -3 8 -8 2
-4 -5 -14 -11 -22 -13 -12 -3 -13 -1 -2 9 6 7 12 18 12 24 0 5 -5 3 -10 -5 -8
-12 -11 -13 -19 -1 -7 11 -9 11 -14 0 -3 -8 -6 -4 -6 9 -1 12 -6 22 -12 22 -5
0 -7 -6 -3 -12 5 -9 2 -9 -9 1 -20 16 -23 2 -4 -19 9 -11 8 -11 -7 0 -18 14
-19 13 -13 -4 6 -16 5 -17 -8 -6 -12 10 -13 16 -3 29 12 14 11 14 -4 2 -10 -7
-16 -17 -13 -21 3 -5 1 -11 -5 -15 -5 -3 -10 -11 -10 -16 0 -6 5 -7 10 -4 6 3
10 4 10 0 0 -3 -11 -10 -25 -15 -22 -8 -24 -13 -15 -29 7 -14 7 -20 -2 -23 -8
-3 -9 -11 -3 -24 4 -10 9 -23 10 -29 0 -5 6 -9 11 -8 14 3 14 -30 0 -39 -7 -5
-4 -8 7 -8 9 0 17 -5 17 -11 0 -5 -4 -7 -10 -4 -7 4 -7 -2 -1 -18 6 -14 7 -28
3 -32 -3 -3 1 -3 10 0 19 8 33 -10 17 -21 -8 -5 -9 -3 -4 6 5 9 4 11 -4 6 -9
-6 -9 -11 -1 -21 8 -10 7 -14 -7 -18 -15 -4 -14 -5 4 -6 12 0 25 -6 29 -13 4
-6 3 -8 -4 -4 -15 9 -10 -70 6 -86 16 -16 16 -38 0 -38 -8 0 -6 -5 4 -11 10
-5 15 -16 11 -25 -3 -9 0 -20 7 -24 14 -9 19 -24 24 -77 2 -18 -1 -30 -5 -27
-4 2 -11 -1 -15 -7 -4 -8 -3 -9 4 -5 7 4 12 2 12 -4 0 -6 5 -8 12 -4 7 5 8 3
2 -7 -4 -8 -9 -23 -11 -34 -1 -11 1 -14 3 -7 12 28 21 9 22 -48 0 -33 4 -65 7
-70 3 -6 1 -10 -4 -10 -6 0 -10 -3 -10 -7 3 -19 -2 -33 -12 -33 -6 0 -8 10 -5
23 6 22 6 22 -6 -1 -9 -19 -9 -25 3 -33 9 -6 -1 -7 -29 -5 -40 4 -42 3 -25
-11 17 -13 16 -14 -8 -10 -16 2 -26 -1 -26 -9 0 -7 4 -11 9 -8 4 3 5 -2 1 -12
-5 -14 -8 -13 -19 7 -7 13 -13 18 -14 11 0 -7 -5 -10 -12 -6 -7 4 -8 3 -4 -5
4 -6 12 -9 17 -6 5 4 9 1 9 -6 0 -6 -8 -9 -19 -6 -13 3 -18 0 -15 -8 3 -7 0
-16 -7 -21 -8 -5 -10 -3 -4 7 7 12 6 12 -7 1 -9 -7 -18 -9 -20 -5 -1 5 -12 0
-22 -11 -16 -16 -17 -18 -3 -13 9 3 17 2 17 -3 0 -6 -5 -10 -11 -10 -7 0 -18
-8 -25 -17 -12 -17 -14 -16 -38 6 -14 13 -22 29 -19 34 9 15 10 57 2 51 -4 -2
-5 11 -4 29 1 17 -3 35 -9 39 -7 5 -3 8 9 8 16 0 17 2 5 9 -8 6 -18 7 -22 5
-4 -3 -8 -1 -8 4 0 6 7 13 16 16 15 6 15 8 0 25 -13 15 -14 20 -4 24 9 4 8 6
-3 6 -11 1 -16 11 -17 31 0 21 3 28 11 23 9 -5 9 -3 1 8 -6 8 -10 26 -9 41 1
18 -2 25 -12 21 -7 -3 -14 1 -14 8 -1 8 -3 39 -4 69 -2 30 -4 56 -5 58 -2 1
-3 6 -4 11 0 5 -5 13 -10 18 -6 5 -6 2 -1 -7 5 -8 4 -12 0 -7 -14 12 -15 41
-2 49 9 6 9 8 0 8 -7 0 -13 7 -13 16 0 9 -5 12 -12 8 -10 -6 -9 -3 0 9 12 13
10 18 -7 33 -11 10 -17 22 -13 28 12 19 10 33 -4 33 -8 0 -14 -5 -14 -10 0 -6
-3 -7 -6 -4 -4 4 -1 13 5 21 10 11 8 17 -8 28 -11 8 -23 25 -25 39 -3 13 -5
26 -6 29 -2 3 -1 9 0 15 1 5 -2 7 -5 3 -4 -4 -16 -3 -26 3 -13 7 -19 6 -19 -1
0 -6 -5 -8 -11 -4 -8 5 -6 10 5 16 9 5 16 14 16 21 0 8 -3 8 -9 -2 -6 -9 -11
-10 -15 -2 -4 6 -13 11 -19 11 -7 0 -6 -4 3 -11 13 -9 13 -10 0 -6 -8 2 -14
13 -14 25 1 12 -2 19 -6 17 -5 -3 -11 1 -14 7 -3 7 -3 3 -1 -9 3 -12 0 -25 -6
-29 -8 -4 -9 -3 -5 4 4 7 2 20 -3 29 -8 14 -10 15 -11 3 0 -13 -2 -13 -9 0 -6
8 -8 17 -5 21 2 4 -3 9 -11 12 -10 4 -12 1 -8 -11 4 -13 2 -13 -10 3 -8 10
-12 26 -9 35 5 12 3 12 -11 -2 -17 -16 -52 -15 -42 2 3 4 -4 10 -16 13 -17 5
-18 3 -7 -11 7 -9 8 -14 4 -10 -5 4 -15 3 -23 -4 -11 -8 -12 -7 -8 5 4 8 2 18
-4 22 -7 4 -8 0 -4 -11 4 -11 2 -15 -4 -11 -6 4 -9 -3 -7 -18 1 -14 -2 -27 -6
-30 -5 -3 -7 5 -5 17 4 21 2 20 -20 -7 -27 -33 -31 -45 -14 -45 5 0 8 4 4 9
-3 5 -1 12 4 15 19 12 20 -12 1 -32 -21 -23 -27 -37 -10 -27 6 3 10 -1 10 -10
0 -9 4 -14 8 -11 4 2 9 -4 9 -15 3 -31 24 -53 34 -37 6 9 9 9 9 1 0 -6 -4 -15
-10 -18 -5 -3 -10 -13 -10 -22 0 -13 2 -13 16 -2 15 12 16 11 10 -9 -5 -15 -3
-22 6 -22 10 0 9 -3 -2 -10 -8 -5 -10 -10 -5 -10 6 0 11 -11 11 -25 1 -14 -3
-25 -9 -25 -6 0 -8 -3 -5 -6 4 -3 15 -1 26 5 17 9 19 8 15 -9 -3 -11 -9 -18
-12 -15 -4 2 -8 -3 -8 -11 0 -8 6 -13 14 -10 16 7 17 -6 1 -23 -11 -10 -10
-12 2 -9 16 3 16 -4 4 -36 -5 -14 -4 -17 4 -12 7 4 12 2 12 -3 0 -6 -6 -11
-12 -11 -10 0 -10 -2 -2 -8 7 -4 10 -19 9 -35 -2 -15 2 -33 9 -40 7 -7 13 -29
14 -50 1 -69 1 -69 20 -63 11 4 8 -1 -8 -15 -19 -16 -20 -19 -6 -15 15 5 17 4
7 -8 -9 -10 -9 -15 -1 -18 7 -2 13 -20 15 -41 3 -26 1 -35 -7 -31 -8 5 -8 3
-2 -7 5 -8 9 -27 10 -42 0 -16 7 -33 15 -39 10 -7 8 -8 -11 -4 -22 4 -23 4 -8
-8 14 -10 15 -15 5 -26 -9 -10 -9 -11 1 -6 6 4 12 2 12 -4 0 -6 5 -8 12 -4 7
4 8 3 4 -5 -4 -6 -12 -9 -17 -6 -5 4 -9 -1 -9 -10 0 -9 4 -14 9 -11 5 3 12 -1
15 -10 10 -26 7 -34 -12 -28 -14 5 -14 4 -2 -4 8 -6 15 -31 17 -57 2 -25 10
-57 19 -71 16 -23 15 -24 -1 -18 -13 5 -16 3 -13 -7 3 -8 11 -13 17 -11 7 1
10 -2 6 -8 -3 -6 -11 -8 -16 -5 -5 4 -9 2 -9 -3 0 -17 13 -22 29 -9 14 11 14
10 2 -5 -7 -10 -17 -16 -21 -13 -5 3 -12 0 -16 -6 -4 -7 -3 -9 4 -5 6 3 13 2
17 -4 6 -10 -13 -14 -45 -11 -12 2 -12 0 -1 -7 10 -8 8 -13 -10 -26 -13 -9
-19 -16 -13 -16 5 0 15 5 21 11 8 8 13 7 18 -2 5 -8 4 -10 -4 -5 -6 4 -14 1
-17 -7 -3 -8 -16 -13 -30 -11 -22 2 -23 0 -12 -14 8 -10 9 -13 1 -9 -6 4 -14
3 -18 -3 -3 -5 -1 -10 5 -10 6 0 8 -5 4 -11 -3 -6 -9 -7 -13 -3 -13 18 -33 15
-27 -4 8 -23 -36 -67 -58 -59 -9 4 -16 2 -16 -4 0 -6 -4 -8 -9 -5 -4 3 -7 -6
-5 -19 3 -29 -13 -42 -29 -26 -9 9 -7 11 8 6 16 -5 17 -5 5 3 -18 13 -41 -3
-34 -23 3 -7 0 -16 -7 -21 -8 -5 -10 -3 -4 7 5 8 5 11 0 7 -4 -4 -15 -2 -24 4
-13 10 -14 10 -4 -2 7 -8 13 -20 13 -28 0 -7 -12 0 -26 17 -14 17 -23 38 -20
46 3 8 1 15 -3 15 -5 0 -7 9 -4 20 3 13 0 20 -8 20 -11 0 -11 2 1 10 8 5 11
10 5 10 -5 0 -4 4 3 9 11 7 10 9 -3 14 -9 4 -13 3 -10 -2 3 -5 2 -12 -3 -15
-4 -2 -9 7 -10 20 -1 14 2 23 7 19 5 -3 13 -1 16 5 4 6 1 9 -7 8 -7 -2 -12 5
-12 15 1 9 -2 17 -6 17 -11 0 -7 34 5 42 6 5 3 8 -7 8 -9 0 -20 5 -24 12 -5 7
-2 9 9 5 11 -4 14 -2 10 9 -3 7 -9 14 -14 14 -5 0 -9 4 -9 10 0 5 8 7 17 3 15
-5 14 -3 -2 10 -16 14 -17 18 -6 26 8 5 9 10 3 12 -6 2 -13 23 -14 47 -2 25
-7 41 -14 38 -6 -2 -11 2 -11 10 0 7 4 11 8 9 4 -3 9 2 12 10 4 10 1 12 -10 8
-10 -4 -14 -2 -10 4 4 6 1 14 -5 16 -7 3 -4 6 7 7 l20 1 -20 9 c-12 5 -14 9
-6 9 11 1 10 5 -5 17 -10 8 -14 13 -7 10 6 -4 14 -2 18 4 3 5 2 10 -4 10 -5 0
-8 16 -6 35 3 32 -3 40 -28 36 -4 -1 -4 7 0 16 9 18 8 70 0 108 -2 11 -1 25 4
31 5 7 3 11 -6 11 -8 0 -11 -5 -8 -11 3 -6 0 -5 -8 2 -12 11 -11 15 4 26 16
13 16 14 -4 19 -12 3 -18 10 -14 16 3 6 12 9 18 5 7 -3 5 0 -4 8 -21 17 -23
29 -7 39 7 5 9 9 3 9 -5 0 -11 16 -12 37 -1 20 -7 40 -14 44 -7 4 -9 16 -6 28
3 12 2 23 -2 25 -4 3 -6 23 -5 45 2 37 -7 53 -19 34 -2 -5 -2 -3 -1 4 2 7 -1
15 -7 19 -6 4 -6 11 2 20 9 11 8 14 -2 14 -11 0 -11 2 1 10 12 8 12 10 1 10
-10 0 -11 3 -2 14 9 10 9 16 1 21 -6 4 -9 14 -5 22 5 14 3 14 -12 2 -9 -8 -14
-9 -10 -2 4 6 0 18 -8 26 -21 22 -19 33 3 14 15 -14 19 -15 19 -2 0 8 -4 12
-9 9 -4 -3 -8 2 -8 11 0 9 -4 13 -10 10 -5 -3 -10 -2 -10 3 0 5 -10 14 -23 21
l-22 11 23 -6 c13 -3 22 -1 22 6 0 6 -4 8 -10 5 -5 -3 -10 -2 -10 4 0 6 -8 7
-17 4 -13 -5 -15 -2 -10 11 4 10 3 15 -3 11 -6 -3 -10 -1 -10 5 0 6 -4 9 -9 6
-5 -4 -12 0 -15 6 -3 7 -4 2 -2 -12 2 -14 1 -19 -1 -12 -3 7 -9 9 -15 6 -7 -4
-8 -2 -4 4 5 8 0 12 -13 12 -12 0 -20 3 -20 8 4 22 -3 32 -21 32 -23 0 -26 10
-8 28 9 9 4 10 -19 3 -18 -5 -35 -6 -39 -3 -4 4 -4 1 0 -6 5 -7 15 -11 25 -7
11 4 13 3 6 -4 -13 -13 -57 -2 -48 12 3 6 1 7 -6 3 -6 -4 -9 -11 -6 -16 3 -4
-2 -13 -10 -20 -12 -10 -13 -16 -4 -26 6 -8 8 -14 3 -14 -5 0 -2 -5 6 -11 12
-8 10 -9 -9 -4 -16 5 -21 4 -17 -4 4 -6 3 -11 -1 -11 -5 0 -13 -8 -20 -18 -9
-15 -8 -19 3 -19 7 0 11 4 8 9 -3 4 0 8 5 8 16 0 13 -16 -4 -30 -8 -7 -15 -18
-15 -24 0 -6 5 -4 10 4 7 11 9 3 7 -27 -2 -24 1 -43 5 -43 5 0 6 -5 2 -12 -4
-6 -8 -24 -8 -40 -1 -23 2 -27 19 -22 20 6 20 6 1 -9 -19 -14 -19 -14 0 -26
18 -12 18 -12 -4 -8 -15 4 -20 1 -15 -6 4 -7 8 -21 9 -32 2 -40 4 -46 14 -40
14 9 12 -8 -3 -24 -7 -9 -7 -11 -1 -8 8 5 13 -7 16 -33 2 -22 -1 -40 -6 -40
-6 0 -5 -5 1 -11 6 -6 9 -18 6 -27 -4 -9 -2 -13 4 -9 5 3 10 0 10 -8 0 -8 -4
-12 -9 -9 -4 3 -8 0 -8 -5 0 -6 8 -11 18 -12 14 0 14 -2 -3 -9 -18 -8 -18 -9
-2 -9 10 -1 15 -5 12 -11 -3 -5 -1 -10 5 -10 6 0 8 -5 5 -10 -4 -6 -11 -8 -16
-4 -12 7 -7 -19 5 -28 14 -9 16 -38 4 -38 -6 0 -3 -10 8 -22 10 -12 14 -18 7
-15 -6 4 -14 3 -17 -2 -3 -5 1 -11 9 -15 21 -8 19 -26 -2 -26 -15 0 -16 -2 -3
-9 8 -6 17 -8 21 -5 10 6 5 -24 -6 -33 -4 -4 -5 -2 0 6 5 10 4 12 -4 7 -6 -4
-9 -12 -5 -17 3 -5 9 -7 13 -5 4 3 9 -16 10 -41 1 -26 6 -50 12 -54 8 -4 7 -8
-2 -11 -11 -4 -10 -9 4 -26 23 -25 28 -53 14 -70 -8 -10 -7 -16 4 -22 12 -8
12 -13 1 -31 -8 -11 -9 -18 -3 -14 6 3 11 -1 11 -9 0 -9 -6 -16 -12 -16 -10 0
-10 -2 0 -9 8 -4 13 -12 12 -17 -1 -4 7 -11 17 -15 15 -6 14 -8 -7 -9 -18 -2
-20 -4 -7 -7 11 -3 17 -14 17 -32 0 -15 3 -31 7 -35 11 -10 12 -37 2 -30 -5 3
-6 10 -3 16 4 7 2 8 -4 4 -13 -8 -5 -36 11 -36 7 0 7 -4 -1 -12 -15 -15 -15
-28 -1 -28 5 0 7 6 3 13 -6 9 -3 8 9 -1 12 -10 14 -19 6 -38 -11 -31 -11 -37
-1 -30 4 2 9 -4 9 -15 1 -13 -2 -17 -10 -12 -7 4 -6 0 2 -10 7 -9 11 -26 8
-37 -3 -11 0 -23 5 -27 7 -3 8 -1 4 5 -4 7 -2 12 3 12 14 0 14 -13 0 -27 -8
-8 -7 -13 2 -18 8 -6 10 -4 4 6 -5 8 -4 11 0 6 11 -10 14 -48 3 -41 -14 9 -9
-4 8 -21 13 -12 14 -19 4 -30 -7 -9 -8 -15 -2 -15 5 0 13 -7 16 -16 6 -15 4
-15 -11 -3 -16 12 -17 12 -6 -2 10 -12 10 -18 0 -28 -6 -7 -7 -12 -2 -11 24 5
32 -2 31 -28 -1 -15 3 -33 8 -41 17 -22 16 -45 -2 -66 -15 -17 -15 -18 -1 -7
14 10 18 10 23 -3 3 -10 -1 -15 -12 -15 -11 0 -13 -3 -5 -8 28 -18 -3 -65 -36
-55 -9 2 -6 -2 7 -10 21 -12 22 -15 7 -27 -13 -11 -15 -10 -9 5 5 13 4 16 -4
11 -7 -4 -12 -19 -12 -34 0 -21 -2 -24 -10 -12 -8 13 -14 10 -36 -15 -14 -16
-22 -23 -19 -15 4 8 -2 4 -13 -10 -16 -19 -18 -28 -10 -45 10 -18 9 -18 -4 -7
-13 10 -18 10 -24 1 -4 -7 -3 -9 3 -6 6 4 13 1 16 -7 4 -10 -1 -13 -19 -11
-13 1 -24 -2 -24 -6 0 -5 10 -9 23 -10 22 -1 22 -1 -3 -12 -14 -7 -26 -18 -28
-26 -3 -12 0 -12 11 -2 12 9 15 9 14 -1 -1 -32 4 -49 13 -43 5 3 10 1 10 -5 0
-6 4 -8 10 -5 6 3 7 -1 3 -10 -4 -13 -8 -14 -14 -4 -4 8 -11 10 -16 6 -11 -12
16 -25 48 -23 16 1 29 -1 29 -6 0 -4 8 -5 17 -1 16 5 15 4 -1 -9 -17 -14 -17
-15 -2 -21 11 -5 15 -3 10 5 -4 6 7 3 24 -7 17 -10 29 -22 26 -27 -3 -4 -1 -8
5 -8 5 0 12 6 14 13 4 10 6 10 6 0 1 -16 47 -17 57 -2 4 7 0 9 -14 5 -11 -4
-23 -2 -27 3 -4 7 1 8 11 4 12 -5 15 -3 9 6 -6 10 -3 11 14 1 12 -6 19 -15 16
-20 -3 -5 4 -11 15 -15 16 -5 18 -10 10 -25 -13 -24 -13 -40 0 -20 8 11 10 6
8 -20 -1 -20 2 -42 7 -50 15 -24 15 -42 0 -36 -9 3 -12 0 -8 -9 3 -8 9 -13 13
-10 5 3 12 1 15 -5 4 -6 3 -10 -2 -9 -21 4 -25 -2 -8 -14 19 -15 12 -42 -8
-31 -7 3 -2 -3 11 -14 15 -14 18 -22 10 -25 -7 -3 -2 -6 11 -6 24 -1 24 -1 5
-16 -16 -13 -16 -14 -1 -9 19 7 24 -11 5 -20 -7 -3 -2 -3 11 0 13 4 21 2 18
-3 -4 -5 0 -10 8 -11 8 -1 21 -3 29 -4 8 -1 12 -7 9 -13 -3 -9 6 -12 29 -10
18 2 27 1 21 -2 -7 -2 -13 -14 -12 -26 0 -21 1 -21 8 -3 7 18 8 18 14 2 4 -10
5 -21 2 -26 -3 -4 4 -6 16 -3 12 4 25 0 31 -8 8 -11 9 -10 4 3 -3 10 0 20 6
24 7 4 8 3 4 -4 -4 -7 -2 -12 4 -12 6 0 8 -5 4 -12 -5 -9 -2 -8 9 1 12 10 14
17 7 26 -8 9 -4 12 15 10 14 -2 28 2 32 7 3 6 2 9 -3 6 -5 -3 -15 0 -21 8 -11
11 -9 13 10 11 12 -1 24 3 27 8 7 17 52 55 64 55 6 0 4 5 -4 10 -8 5 -11 10
-6 10 5 0 3 7 -4 15 -11 13 -10 14 4 9 12 -5 15 -2 10 10 -3 9 -11 13 -18 9
-6 -3 -2 4 9 17 17 20 17 22 3 17 -10 -3 -20 -1 -24 5 -4 7 -3 8 4 4 7 -4 12
-1 12 9 0 10 -5 13 -12 9 -8 -5 -8 -1 1 10 12 14 12 19 2 25 -10 6 -9 9 2 14
18 7 17 65 -2 76 -11 7 -11 10 0 15 11 5 11 7 1 12 -6 3 -9 11 -5 17 13 21 12
39 -2 34 -10 -4 -11 3 -4 31 7 32 6 35 -6 19 -12 -17 -13 -17 -13 5 1 68 -6
127 -15 121 -6 -4 -7 -1 -2 8 12 19 14 49 3 49 -5 0 -6 5 -2 12 5 7 3 8 -6 3
-9 -6 -10 -2 -5 15 5 14 3 20 -3 16 -10 -6 -7 29 7 93 1 2 7 -2 15 -8 11 -9
16 -9 22 0 4 8 3 9 -4 5 -8 -5 -11 0 -9 16 2 13 12 25 22 26 11 3 15 0 10 -7
-3 -6 -11 -8 -17 -5 -7 4 -8 2 -4 -5 14 -22 38 7 25 31 -8 15 -8 19 0 14 6 -4
11 -2 11 4 0 6 5 8 12 4 8 -5 9 -2 5 10 -5 12 -2 16 10 14 9 -2 17 5 19 15 1
11 6 22 10 25 4 4 4 -1 1 -10 -3 -10 -1 -20 5 -24 6 -4 8 -3 4 4 -3 6 -2 13 3
16 5 4 8 19 5 34 -4 26 -4 26 9 5 8 -15 17 -19 26 -14 11 7 10 10 -5 14 -17 4
-17 6 4 12 12 4 22 15 22 26 0 12 5 16 15 13 10 -4 13 0 10 15 -2 12 0 19 5
16 5 -3 12 -1 15 5 5 8 11 8 19 1 7 -6 17 -7 21 -3 5 4 5 2 1 -5 -3 -6 -2 -14
3 -18 6 -3 8 -12 4 -20 -3 -9 1 -23 8 -33 12 -15 12 -16 -1 -5 -13 10 -16 9
-16 -7 0 -10 4 -16 9 -13 5 3 6 -4 2 -17 -5 -17 -4 -21 6 -16 8 4 5 0 -6 -9
-20 -17 -20 -17 3 -10 13 4 22 2 22 -4 0 -6 -7 -11 -16 -11 -8 0 -12 -5 -9
-10 4 -6 11 -7 17 -4 7 4 8 2 4 -4 -4 -6 -2 -20 4 -31 7 -14 7 -22 -2 -27 -6
-4 -8 -3 -4 4 3 6 2 13 -3 16 -13 9 -7 -19 8 -38 11 -13 11 -16 0 -16 -12 0
-12 -2 0 -9 11 -7 11 -9 0 -14 -9 -4 -10 -6 -2 -6 7 -1 10 -8 6 -18 -4 -10 -2
-14 5 -9 6 3 14 2 17 -4 4 -6 3 -10 -2 -9 -20 3 -34 -2 -28 -11 4 -6 11 -8 16
-4 6 3 5 -4 -3 -16 -11 -18 -11 -22 5 -31 9 -6 17 -17 17 -25 0 -10 -5 -12
-12 -8 -10 6 -10 4 -2 -7 16 -21 24 -58 13 -65 -5 -3 -7 -10 -3 -15 3 -5 10
-6 16 -3 7 4 8 2 4 -5 -4 -6 -2 -20 6 -29 12 -15 11 -16 -4 -4 -12 10 -18 10
-24 1 -5 -8 -3 -9 6 -4 10 6 12 4 7 -8 -3 -9 -1 -19 5 -23 7 -4 8 -3 4 4 -4 7
-2 12 3 12 6 0 11 -13 11 -29 0 -21 6 -32 20 -36 11 -3 20 -11 20 -16 0 -6 -5
-7 -12 -3 -7 4 -8 3 -4 -5 6 -9 11 -9 24 1 12 10 14 10 8 0 -5 -8 1 -12 18
-12 14 0 26 -4 26 -10 0 -5 -6 -8 -12 -6 -7 1 -10 1 -5 -1 4 -3 4 -10 1 -16
-5 -8 -2 -8 7 1 15 13 43 17 35 4 -3 -5 5 -18 19 -30 16 -14 25 -17 29 -9 2 7
5 3 5 -8 1 -15 9 -21 28 -23 15 -1 30 -7 34 -13 5 -8 8 -8 13 0 4 6 2 11 -4
11 -6 0 -8 5 -5 10 4 6 10 8 15 5 5 -3 14 3 20 14 7 14 7 22 0 26 -6 4 -10 3
-9 -2 1 -4 1 -15 0 -23 -1 -13 -2 -13 -11 0 -10 16 6 44 20 35 12 -7 41 6 35
15 -9 14 16 23 28 11 9 -9 8 -11 -3 -8 -8 2 -12 2 -7 0 4 -3 4 -10 0 -16 -4
-7 1 -6 11 2 9 8 14 21 11 29 -3 9 0 12 8 9 8 -3 14 3 14 15 2 15 -1 17 -12 8
-10 -8 -15 -8 -21 1 -4 7 -3 9 3 6 5 -3 15 10 21 29 9 31 9 35 -5 30 -13 -5
-14 -4 -3 9 11 13 8 19 -11 17 -3 -1 -6 5 -6 12 0 7 6 13 13 13 7 0 10 -5 7
-10 -3 -6 -1 -7 5 -3 8 5 8 15 2 32 -5 13 -9 28 -9 32 3 20 -3 31 -18 35 -17
4 -17 5 0 6 10 0 15 6 12 11 -4 6 -11 8 -16 5 -5 -4 -5 4 1 19 7 19 6 26 -2
26 -7 0 -3 7 8 15 16 13 16 14 2 9 -10 -3 -18 -2 -19 2 0 5 -2 17 -4 26 -2 10
2 21 7 25 7 4 8 1 3 -7 -5 -8 -4 -11 3 -6 6 4 9 13 5 22 -3 9 -9 11 -17 5 -8
-7 -11 0 -10 22 1 18 -4 36 -10 40 -7 6 -4 7 7 3 14 -4 16 -2 8 12 -6 11 -5
24 2 37 9 17 8 18 -4 8 -12 -10 -15 -8 -15 7 0 10 5 16 11 12 5 -3 4 2 -4 12
-13 15 -13 19 0 27 9 5 10 9 2 9 -8 0 -11 13 -9 36 1 19 -2 38 -7 41 -6 3 -7
2 -4 -3 3 -6 1 -16 -4 -24 -7 -12 -8 -11 -6 5 1 11 7 26 11 34 6 10 5 12 -3 7
-8 -5 -12 -3 -10 5 1 8 1 34 0 58 -1 40 -2 42 -18 30 -17 -13 -17 -13 -3 5 15
19 23 109 9 100 -4 -2 -6 -13 -4 -24 2 -11 0 -22 -5 -25 -4 -3 -7 3 -5 12 1
10 -2 26 -7 37 -7 13 -7 16 1 11 8 -5 10 1 5 21 -5 21 -4 25 7 20 8 -4 5 0 -5
8 -20 16 -20 16 0 32 10 8 13 13 7 9 -9 -4 -13 2 -13 19 0 24 10 31 34 27 5
-1 4 4 -3 13 -7 9 -8 16 -2 20 5 4 15 -2 21 -11 11 -17 11 -17 6 0 -5 15 -2
17 17 12 15 -4 18 -3 8 3 -11 8 -11 11 0 16 8 3 3 3 -10 0 -17 -4 -21 -3 -16
6 4 6 18 10 31 7 14 -2 27 0 30 5 3 4 10 5 16 2 7 -4 8 -2 4 4 -4 7 -2 12 3
12 6 0 11 6 11 13 0 17 34 49 42 41 9 -8 49 16 43 26 -7 11 24 42 36 35 5 -4
9 -1 9 5 0 7 6 5 15 -4 20 -19 19 -32 0 -16 -13 11 -14 10 -9 -4 3 -9 10 -16
15 -16 5 0 9 -5 9 -11 0 -5 -5 -7 -10 -4 -6 3 0 -11 12 -32 18 -30 19 -35 5
-24 -15 12 -17 12 -11 -3 3 -9 10 -16 14 -16 4 0 11 -7 14 -16 5 -13 3 -14 -7
-6 -10 8 -13 6 -13 -8 0 -10 4 -16 8 -14 4 3 9 0 9 -5 3 -21 4 -26 12 -38 4
-6 2 -15 -3 -18 -7 -5 -5 -12 7 -22 14 -11 14 -14 2 -10 -9 3 -16 -1 -16 -8 0
-8 5 -13 10 -12 5 1 12 -4 14 -11 3 -6 -1 -10 -9 -9 -7 2 -10 2 -5 0 4 -3 5
-9 2 -14 -4 -5 0 -6 7 -4 10 4 13 -6 13 -40 -1 -25 2 -45 7 -45 4 0 3 -11 -2
-24 -9 -25 -5 -36 14 -36 6 0 4 5 -4 11 -13 9 -13 10 0 6 10 -2 14 -13 12 -31
-2 -15 2 -34 10 -43 9 -12 10 -15 1 -9 -9 5 -13 0 -13 -13 0 -12 5 -21 11 -21
5 0 7 -4 4 -10 -3 -5 -1 -10 5 -10 6 0 8 -5 5 -10 -4 -6 -11 -8 -16 -5 -5 4
-4 -5 2 -19 7 -14 17 -22 23 -19 6 4 5 0 -2 -9 -10 -13 -10 -17 0 -21 10 -4
10 -7 -1 -15 -8 -6 -9 -11 -3 -13 6 -2 12 -13 14 -24 1 -11 10 -25 18 -32 13
-11 13 -12 -2 -13 -10 0 -18 -5 -18 -11 0 -5 4 -8 9 -5 5 3 15 -2 22 -11 10
-12 10 -14 2 -9 -8 4 -13 1 -13 -8 0 -9 8 -16 17 -16 15 0 14 -2 -3 -16 -19
-15 -19 -16 1 -10 19 6 19 5 2 -8 -10 -8 -14 -17 -8 -20 5 -3 11 0 14 6 2 7 8
10 12 6 4 -4 3 -13 -1 -20 -11 -18 -14 -39 -4 -33 4 3 10 -2 14 -10 3 -8 1
-15 -4 -15 -5 0 -7 -7 -4 -15 5 -11 10 -12 18 -5 14 11 16 -16 2 -38 -4 -7 -5
-16 -2 -19 3 -4 6 -1 6 5 0 7 3 12 8 12 4 0 7 -22 7 -49 0 -33 3 -47 11 -44 6
2 14 -3 17 -11 4 -9 2 -16 -4 -16 -6 0 -7 -5 -4 -10 4 -6 12 -7 18 -3 7 4 5
-2 -3 -12 -8 -10 -10 -16 -3 -12 7 5 17 -2 24 -15 12 -22 11 -22 -7 -8 -19 14
-19 14 0 -7 10 -13 22 -21 26 -18 4 2 7 -1 8 -8 2 -26 9 -47 17 -54 4 -4 5 -3
1 4 -3 6 -2 14 4 18 5 3 10 -1 10 -9 0 -8 5 -18 12 -22 6 -4 8 -3 4 4 -3 6 -1
14 6 18 7 4 10 4 6 -1 -8 -9 11 -50 19 -41 4 3 13 0 21 -7 11 -8 14 -8 9 0 -4
6 -3 14 3 18 6 4 10 -7 11 -27 0 -27 2 -29 8 -13 8 19 9 18 12 -5 2 -14 8 -23
13 -22 5 2 13 -2 17 -10 6 -9 9 -9 9 -1 0 7 -8 17 -17 23 -17 11 -17 11 0 6
10 -3 21 -6 23 -6 2 0 4 -6 4 -14 0 -8 4 -18 10 -21 6 -4 7 1 3 12 -6 16 -5
16 10 4 15 -12 17 -12 12 2 -8 18 11 32 21 16 5 -8 3 -9 -6 -4 -9 5 -11 4 -6
-4 4 -6 12 -9 17 -5 5 3 7 9 4 13 -6 11 15 35 50 57 l30 18 -18 -21 c-12 -14
-15 -23 -7 -28 6 -4 9 -1 8 7 -2 7 3 12 10 10 6 -1 11 4 10 10 -2 7 3 12 10
10 6 -1 12 3 12 9 0 6 -6 9 -14 6 -10 -4 -13 2 -12 19 0 14 6 22 13 20 7 -3
10 1 6 10 -3 7 -9 14 -14 14 -5 0 -9 5 -9 11 0 5 5 7 11 3 7 -4 6 3 -2 17 -7
13 -12 29 -10 34 2 6 5 19 7 30 3 19 2 19 -10 2 -12 -16 -14 -16 -20 -2 -3 9
-2 14 3 11 5 -3 11 1 15 9 3 8 -2 19 -11 23 -11 6 -14 18 -11 36 6 29 -1 33
-22 13 -8 -6 -6 -1 5 12 17 21 18 24 3 18 -10 -3 -20 -1 -24 5 -4 6 -3 8 4 4
7 -4 10 4 10 23 -1 17 -8 33 -16 36 -8 3 -12 12 -8 20 3 8 1 17 -4 20 -10 6
-8 24 4 44 7 10 6 12 -4 6 -10 -6 -12 -4 -7 8 4 10 1 17 -6 17 -8 0 -6 4 3 10
13 8 12 10 -2 10 -10 0 -18 5 -18 11 0 5 4 8 8 5 5 -3 9 2 9 10 0 8 -6 13 -14
10 -7 -3 -13 -1 -13 3 0 5 6 12 13 14 9 4 9 6 -1 6 -10 1 -10 6 -1 22 7 13 7
19 1 15 -6 -3 -13 -2 -16 3 -4 5 -2 12 4 16 5 3 10 12 10 18 0 7 -4 6 -10 -3
-8 -11 -9 -5 -7 22 3 21 0 35 -5 32 -5 -3 -7 -12 -4 -20 3 -7 1 -16 -3 -18 -5
-3 -7 21 -5 54 1 35 -2 60 -7 60 -6 0 -7 -5 -4 -10 3 -5 1 -10 -4 -10 -14 0
-14 13 1 28 9 9 9 15 -1 24 -10 9 -12 9 -7 1 3 -6 2 -14 -3 -17 -5 -4 -8 2 -6
11 1 10 10 17 19 17 24 -2 19 5 -11 17 -19 7 -23 13 -15 21 6 6 7 19 2 33 -6
15 -4 27 3 35 10 10 8 12 -7 6 -16 -5 -17 -4 -6 9 11 13 10 14 -2 10 -9 -4
-15 0 -15 9 0 8 4 13 8 10 4 -2 11 0 14 6 4 6 1 9 -7 8 -12 -3 -19 28 -18 90
0 12 -4 22 -9 22 -5 0 -12 7 -15 16 -5 14 -4 15 9 4 13 -11 14 -10 9 4 -3 9
-11 16 -18 16 -6 0 -2 8 9 17 16 13 17 15 3 10 -19 -7 -20 -3 -20 46 -1 15 -5
27 -10 27 -5 0 -6 6 -1 13 12 20 12 36 -1 31 -14 -5 -15 34 -2 55 6 10 6 12
-2 7 -7 -4 -12 -1 -12 9 0 10 -5 14 -12 10 -7 -4 -5 0 4 8 20 16 14 28 -10 21
-14 -5 -14 -4 1 6 19 12 23 30 6 30 -5 0 -7 -6 -3 -12 4 -7 3 -9 -1 -5 -14 12
-15 38 -2 31 7 -3 3 2 -8 12 -20 16 -20 16 5 11 24 -6 24 -5 6 8 -19 15 -30
55 -15 55 4 0 6 9 4 21 -3 15 0 19 10 15 8 -3 15 -1 15 3 0 5 -6 12 -12 14
-10 4 -10 6 0 6 8 1 10 6 6 14 -5 7 0 6 11 -3 17 -14 18 -13 12 3 -5 13 -3 16
6 10 26 -16 39 -10 63 28 13 22 29 37 35 33 7 -4 4 -13 -6 -24 -12 -14 -13
-20 -4 -26 8 -5 10 -3 4 6 -6 9 -4 11 4 6 7 -5 10 -14 7 -22 -3 -8 -1 -14 3
-14 14 0 21 -29 9 -36 -6 -4 -8 -3 -4 4 3 6 2 13 -3 16 -5 4 -8 -2 -6 -11 1
-10 9 -17 18 -15 11 2 15 -2 11 -13 -3 -8 -11 -12 -18 -9 -6 3 -3 -1 7 -9 14
-11 15 -16 5 -20 -10 -4 -10 -6 0 -6 6 -1 12 -6 12 -12 0 -5 -6 -7 -12 -3 -9
6 -9 3 1 -9 8 -10 12 -32 9 -56 -3 -31 0 -38 13 -36 8 2 16 -3 16 -11 0 -8 -5
-14 -11 -14 -6 0 -4 -5 4 -10 12 -8 12 -10 1 -10 -11 0 -10 -5 4 -20 15 -17
16 -22 4 -37 -12 -15 -12 -16 3 -10 22 8 20 -15 -2 -25 -12 -5 -11 -7 4 -7 15
-1 16 -4 6 -16 -11 -13 -10 -14 2 -10 13 5 15 -4 14 -54 -2 -53 0 -61 16 -61
10 0 18 -5 18 -11 0 -6 -7 -8 -17 -5 -16 6 -16 6 0 -12 19 -21 23 -37 6 -26
-8 4 -8 0 0 -15 7 -12 9 -27 5 -33 -5 -7 -2 -9 7 -6 10 4 14 -2 14 -17 0 -19
-3 -21 -15 -12 -13 11 -13 10 -1 -6 8 -10 21 -15 30 -12 11 3 10 0 -3 -10 -14
-11 -16 -15 -5 -15 12 0 12 -2 -1 -10 -12 -8 -12 -10 -1 -10 8 0 11 -7 8 -20
-5 -21 7 -28 16 -10 3 6 4 5 3 -2 -2 -7 1 -23 5 -36 6 -15 5 -21 -1 -17 -6 3
-10 1 -10 -4 0 -6 4 -11 9 -11 5 0 8 -13 6 -30 -3 -21 0 -30 10 -30 8 0 17 -5
21 -12 5 -8 2 -9 -11 -4 -14 5 -16 4 -7 -7 7 -8 8 -17 4 -21 -4 -4 -2 -7 3 -6
21 5 29 -1 15 -10 -13 -9 -13 -11 0 -20 12 -8 13 -10 1 -10 -8 0 -11 -3 -7 -7
4 -5 13 -8 19 -8 6 0 12 -15 13 -32 1 -20 -2 -33 -9 -33 -7 0 -6 -4 3 -9 8 -6
17 -8 21 -5 4 2 5 -5 2 -16 -3 -11 -10 -17 -16 -13 -6 3 -7 1 -3 -5 4 -6 13
-9 21 -5 8 3 15 1 15 -5 0 -6 -6 -13 -12 -15 -10 -4 -10 -6 0 -6 7 -1 12 -14
12 -31 0 -16 5 -30 11 -30 5 0 7 5 3 12 -4 6 -3 8 4 5 5 -4 9 -18 7 -32 -1
-17 3 -25 14 -26 12 0 11 -2 -4 -9 -19 -8 -18 -11 4 -14 5 0 13 -5 18 -10 5
-5 3 -6 -4 -2 -7 4 -13 2 -13 -3 0 -6 6 -11 13 -11 8 0 7 -4 -3 -10 -12 -8
-12 -10 5 -11 11 0 14 -3 8 -6 -9 -3 -10 -10 -3 -22 5 -10 6 -22 2 -26 -4 -5
1 -5 11 -2 12 5 17 1 17 -14 0 -13 -4 -18 -12 -13 -8 4 -10 3 -5 -2 8 -9 12
-10 39 -13 7 0 3 -8 -8 -16 -18 -15 -18 -15 0 -8 16 5 18 3 14 -15 -4 -14 -2
-20 5 -15 7 4 8 0 3 -12 -6 -16 -4 -16 11 -4 11 9 14 10 9 2 -4 -8 -2 -13 6
-13 10 0 9 -3 -2 -11 -12 -9 -10 -10 8 -6 13 3 21 3 18 0 -3 -4 0 -13 7 -22
11 -14 10 -15 -8 -1 -19 14 -19 14 -6 -3 8 -10 21 -17 30 -16 30 3 42 -1 36
-11 -3 -5 -11 -10 -16 -10 -6 0 -7 5 -3 12 4 7 3 8 -5 4 -9 -6 -9 -11 1 -23 7
-9 14 -11 16 -5 2 7 12 8 27 2 12 -5 26 -6 30 -2 4 4 3 -3 -3 -14 -14 -26 -5
-37 19 -24 12 7 20 7 24 0 4 -6 11 -8 16 -5 5 3 6 -1 2 -10 -5 -13 -7 -14 -14
-3 -6 9 -9 9 -9 1 0 -13 17 -26 38 -29 6 -1 10 2 6 7 -3 5 -11 6 -17 3 -7 -4
-9 -3 -5 1 5 5 20 9 35 11 16 1 22 0 16 -3 -7 -2 -13 -9 -13 -14 0 -5 9 -4 20
3 16 11 17 14 5 21 -8 4 -15 13 -15 19 0 7 4 7 13 -1 11 -8 18 -6 33 11 16 19
16 20 2 9 -10 -7 -18 -9 -18 -5 0 5 9 15 21 22 12 8 18 9 14 3 -4 -7 2 -10 17
-8 13 2 23 9 23 15 0 6 3 14 8 18 11 12 8 24 -7 24 -16 0 -16 31 -1 43 6 4 3
11 -8 18 -10 6 -14 15 -10 22 11 18 12 37 3 37 -5 0 -10 -3 -13 -7 -2 -5 -3
-3 -1 3 1 6 -3 17 -9 24 -9 9 -9 11 -1 7 7 -4 14 0 17 8 4 10 1 12 -11 8 -14
-6 -15 -4 -4 9 9 12 10 18 2 23 -6 4 -9 14 -5 22 5 14 3 14 -12 2 -9 -8 -14
-9 -10 -2 4 6 3 15 -3 18 -8 5 -7 12 2 23 8 9 8 13 2 9 -12 -7 -29 19 -25 37
1 5 -4 13 -11 17 -10 7 -10 9 0 9 9 0 10 5 4 17 -5 10 -8 26 -7 36 2 10 -1 14
-8 10 -7 -4 -8 0 -4 11 4 10 3 15 -3 11 -5 -3 -14 3 -20 14 -9 18 -8 20 7 14
16 -6 16 -5 4 10 -7 9 -17 14 -22 11 -5 -3 -9 0 -9 5 0 6 7 11 15 11 8 0 15 4
15 10 0 5 -7 7 -15 4 -10 -4 -15 0 -15 16 0 11 -4 19 -8 16 -5 -3 -9 1 -9 9 0
8 4 12 8 9 4 -2 11 1 15 7 4 8 3 9 -4 5 -7 -4 -12 -2 -12 4 0 6 -6 8 -12 4 -7
-4 -4 3 7 16 l20 23 -21 -11 c-16 -9 -21 -8 -21 3 0 8 4 12 9 9 4 -3 8 0 8 5
0 6 -5 11 -12 11 -6 0 -8 3 -5 7 4 3 2 12 -4 20 -9 10 -8 13 0 13 7 0 9 5 6
10 -4 6 -12 7 -18 3 -8 -4 -8 -2 1 9 10 13 10 17 -2 21 -9 4 -12 14 -9 28 4
15 2 20 -5 15 -6 -3 -14 -2 -17 4 -4 6 -1 9 6 8 7 -2 13 9 14 24 1 15 -2 25
-7 22 -4 -3 -6 -10 -3 -15 4 -5 1 -9 -5 -9 -7 0 -9 8 -5 20 4 11 2 20 -4 20
-6 0 -8 12 -4 32 5 23 3 29 -6 23 -10 -6 -11 -3 -2 13 14 26 14 32 0 32 -5 0
-8 -4 -5 -8 3 -5 -1 -9 -9 -9 -12 0 -12 4 2 20 14 16 15 19 3 15 -13 -5 -15 3
-13 38 2 25 -2 44 -8 44 -5 0 -7 5 -3 12 5 8 2 9 -11 4 -15 -5 -16 -4 -5 9 7
8 17 12 24 8 7 -4 7 -1 -1 8 -10 12 -10 18 0 29 10 12 9 12 -5 1 -10 -7 -15
-17 -12 -22 3 -5 1 -9 -4 -9 -5 0 -9 16 -10 35 -1 21 3 33 8 30 6 -3 10 -1 10
4 0 10 -14 15 -32 12 -16 -2 -7 17 10 24 16 7 15 8 -3 15 -11 5 -14 9 -7 9 10
1 10 5 -2 17 -9 8 -14 19 -11 24 3 5 -1 11 -7 13 -10 4 -10 6 -1 6 9 1 10 8 3
25 -6 16 -5 26 1 28 6 2 7 11 4 21 -4 9 -11 15 -15 12 -5 -3 -12 0 -16 6 -4 7
-3 9 4 5 6 -3 13 -2 17 4 3 5 -1 10 -9 10 -19 0 -20 11 -3 29 10 11 9 12 -1 7
-9 -6 -11 -1 -8 18 3 19 0 26 -12 27 -14 0 -13 2 3 9 13 6 15 9 5 9 -13 1 -13
2 0 11 11 7 11 10 2 10 -7 0 -11 4 -8 9 4 5 1 11 -5 13 -5 2 -11 27 -12 56 -1
28 -6 52 -11 52 -5 0 -4 6 2 13 7 8 7 18 2 27 -5 8 -6 18 -4 22 3 4 0 8 -6 8
-13 0 -9 -31 5 -43 6 -5 4 -7 -5 -4 -8 2 -15 16 -16 34 -1 17 -4 38 -7 46 -4
10 1 17 11 20 13 4 13 5 2 6 -11 1 -15 11 -13 38 2 55 2 55 12 49 5 -3 15 2
22 11 12 14 11 15 -10 8 -22 -7 -23 -7 -4 12 12 13 21 16 28 8 6 -6 9 -8 8 -6
-5 8 18 41 29 41 7 0 6 -5 -2 -15 -7 -9 -11 -18 -8 -20 3 -3 11 6 18 20 7 14
17 25 22 25 4 0 8 5 8 11 0 5 -6 7 -12 3 -7 -4 -9 -3 -5 1 10 12 38 15 32 4
-4 -5 1 -6 9 -3 8 3 12 12 9 20 -3 9 0 14 8 12 8 -2 13 2 12 9 -2 7 6 10 17 8
17 -3 19 -1 9 17 -7 12 -7 18 -1 14 6 -3 12 -3 15 1 2 5 2 2 0 -6 -3 -11 -1
-11 12 -1 8 7 12 17 8 24 -4 6 2 4 12 -4 17 -14 18 -14 6 8 -13 24 -3 30 18
10 10 -11 11 -9 5 6 -5 13 -4 17 3 13 6 -4 17 1 24 10 10 12 10 14 2 9 -7 -4
-13 -3 -13 1 0 5 10 13 23 18 16 7 22 18 22 42 0 26 3 30 17 22 12 -6 16 -5
14 7 -1 9 -8 19 -16 24 -10 6 -8 9 6 13 18 5 17 5 -3 12 -15 5 -20 12 -16 23
4 10 2 13 -2 9 -5 -4 -15 3 -22 15 -11 19 -13 20 -11 4 2 -10 -4 -21 -12 -23
-10 -3 -11 -2 -3 4 9 6 7 15 -7 33 -11 14 -20 19 -20 13 0 -7 -7 -13 -16 -13
-8 0 -13 4 -10 8 2 4 -20 7 -49 7 -29 0 -51 -3 -48 -8 2 -4 9 -5 14 -2 5 3 6
-1 3 -9 -5 -14 -8 -14 -21 -1 -18 19 -24 19 -17 0 6 -14 -21 -21 -62 -16 -14
2 -27 -27 -19 -40 4 -5 -1 -6 -9 -3 -9 3 -13 11 -9 18 3 6 0 5 -8 -2 -12 -11
-12 -14 1 -23 13 -9 12 -10 -2 -5 -10 3 -20 1 -24 -5 -3 -6 -13 -8 -21 -5 -9
4 -11 2 -7 -6 5 -8 2 -9 -11 -4 -14 5 -15 4 -7 -7 8 -10 5 -12 -14 -12 -13 1
-27 5 -31 10 -5 4 -3 5 4 1 21 -12 24 13 3 26 -23 15 -27 30 -5 22 8 -4 15 -1
15 6 0 6 -5 8 -11 5 -6 -4 -13 2 -16 14 -3 12 -10 18 -17 14 -6 -3 -6 0 2 8
15 16 16 29 1 29 -5 0 -7 -6 -3 -12 5 -9 2 -9 -9 1 -21 17 -22 35 -2 28 8 -4
17 -1 21 6 4 7 4 9 0 5 -14 -12 -35 15 -24 29 7 9 3 15 -15 22 -14 5 -28 15
-32 21 -3 5 -10 8 -14 6 -4 -3 -8 2 -8 10 0 11 5 10 22 -6 12 -11 25 -20 30
-20 4 0 -3 9 -16 21 -13 12 -23 25 -22 30 4 11 -30 -2 -39 -15 -4 -6 -6 3 -4
20 3 24 0 31 -12 31 -50 0 -76 5 -62 11 20 9 23 29 5 29 -8 0 -12 -4 -9 -9 3
-4 0 -8 -5 -8 -6 0 -11 6 -11 13 0 11 -49 18 -51 7z m136 -71 c-4 -5 -12 -9
-18 -8 -9 0 -8 2 1 6 6 2 9 10 6 15 -4 7 -2 8 5 4 6 -4 9 -12 6 -17z m-517
-124 c-3 -3 -9 2 -12 12 -6 14 -5 15 5 6 7 -7 10 -15 7 -18z m-1638 -5 c0 -5
-5 -10 -11 -10 -5 0 -7 5 -4 10 3 6 8 10 11 10 2 0 4 -4 4 -10z m1977 -35 c0
-8 -4 -12 -9 -9 -5 3 -6 10 -3 15 9 13 12 11 12 -6z m708 -14 c3 -5 2 -12 -3
-15 -5 -3 -9 1 -9 9 0 17 3 19 12 6z m-1704 -53 c-10 -11 -11 -9 -5 6 6 15 4
17 -6 11 -9 -6 -11 -4 -5 4 5 9 10 10 18 2 8 -8 7 -14 -2 -23z m1493 24 c3 -5
-1 -9 -9 -9 -8 0 -12 4 -9 9 3 4 7 8 9 8 2 0 6 -4 9 -8z m-2179 -122 c3 -6 -1
-7 -9 -4 -18 7 -21 14 -7 14 6 0 13 -4 16 -10z m1710 -10 c3 -5 1 -10 -4 -10
-6 0 -11 5 -11 10 0 6 2 10 4 10 3 0 8 -4 11 -10z m730 0 c-3 -5 -12 -10 -18
-10 -7 0 -6 4 3 10 19 12 23 12 15 0z m-1309 -60 c1 -16 -2 -27 -7 -24 -7 4
-7 28 0 52 3 9 6 -3 7 -28z m-1439 -90 c-1 -11 -5 -20 -9 -20 -3 0 -6 9 -5 20
1 11 5 20 9 20 3 0 6 -9 5 -20z m1123 -30 c0 -5 -2 -10 -4 -10 -3 0 -8 5 -11
10 -3 6 -1 10 4 10 6 0 11 -4 11 -10z m-324 -86 c1 -9 0 -13 -4 -10 -3 4 -7
14 -8 22 -1 9 0 13 4 10 3 -4 7 -14 8 -22z m-436 -8 c0 -3 -4 -8 -10 -11 -5
-3 -10 -1 -10 4 0 6 5 11 10 11 6 0 10 -2 10 -4z m30 -180 c0 -3 -4 -8 -10
-11 -5 -3 -10 -1 -10 4 0 6 5 11 10 11 6 0 10 -2 10 -4z m794 -14 c3 -5 -1 -9
-9 -9 -8 0 -12 4 -9 9 3 4 7 8 9 8 2 0 6 -4 9 -8z m-784 -26 c0 -3 -4 -8 -10
-11 -5 -3 -10 -1 -10 4 0 6 5 11 10 11 6 0 10 -2 10 -4z m1632 -82 c-12 -21
-39 -27 -39 -9 0 7 6 11 13 8 7 -2 16 6 20 19 4 13 9 18 11 11 3 -7 0 -20 -5
-29z m-717 -82 c-3 -3 -11 0 -18 7 -9 10 -8 11 6 5 10 -3 15 -9 12 -12z m-871
-158 c3 -8 2 -12 -4 -9 -6 3 -10 10 -10 16 0 14 7 11 14 -7z m1070 -123 c3 -5
-1 -11 -9 -14 -9 -4 -12 -1 -8 9 6 16 10 17 17 5z m-654 -51 c0 -5 -5 -10 -11
-10 -5 0 -7 5 -4 10 3 6 8 10 11 10 2 0 4 -4 4 -10z m565 -21 c-10 -15 -25
-10 -19 6 4 8 10 12 15 9 5 -3 7 -10 4 -15z m-881 -228 c3 -5 0 -11 -7 -14 -8
-3 -14 1 -14 9 0 16 13 19 21 5z m1176 -281 c0 -5 -4 -10 -10 -10 -5 0 -10 5
-10 10 0 6 5 10 10 10 6 0 10 -4 10 -10z m-1603 -297 c-9 -2 -14 -9 -11 -15 4
-7 2 -8 -5 -4 -15 10 -4 26 17 25 15 -1 15 -2 -1 -6z m897 -11 c3 -5 -1 -9 -9
-9 -8 0 -12 4 -9 9 3 4 7 8 9 8 2 0 6 -4 9 -8z m381 -91 c3 -5 2 -12 -3 -15
-5 -3 -9 1 -9 9 0 17 3 19 12 6z m1055 -1 c0 -5 -5 -10 -11 -10 -5 0 -7 5 -4
10 3 6 8 10 11 10 2 0 4 -4 4 -10z m-1050 -40 c0 -5 -2 -10 -4 -10 -3 0 -8 5
-11 10 -3 6 -1 10 4 10 6 0 11 -4 11 -10z m-1066 -116 c3 -8 2 -12 -4 -9 -6 3
-10 10 -10 16 0 14 7 11 14 -7z m741 -12 c-3 -3 -11 0 -18 7 -9 10 -8 11 6 5
10 -3 15 -9 12 -12z m-355 -71 c0 -6 -4 -12 -8 -15 -5 -3 -9 1 -9 9 0 8 4 15
9 15 4 0 8 -4 8 -9z m475 -11 c3 -5 1 -10 -4 -10 -6 0 -11 5 -11 10 0 6 2 10
4 10 3 0 8 -4 11 -10z m1475 -4 c0 -2 -8 -10 -17 -17 -16 -13 -17 -12 -4 4 13
16 21 21 21 13z m-1410 -32 c0 -8 -19 -13 -24 -6 -3 5 1 9 9 9 8 0 15 -2 15
-3z m-543 -169 c0 -8 -4 -15 -9 -15 -10 0 -11 14 -1 23 9 10 10 9 10 -8z"/>
<path d="M1671 2844 c0 -11 3 -14 6 -6 3 7 2 16 -1 19 -3 4 -6 -2 -5 -13z"/>
<path d="M1415 2809 c-4 -6 -5 -12 -2 -15 2 -3 7 2 10 11 7 17 1 20 -8 4z"/>
<path d="M1535 2331 c-3 -5 -2 -12 3 -15 5 -3 9 1 9 9 0 17 -3 19 -12 6z"/>
<path d="M1235 2291 c-3 -5 -2 -12 3 -15 5 -3 9 1 9 9 0 17 -3 19 -12 6z"/>
<path d="M890 2090 c0 -5 5 -10 11 -10 5 0 7 5 4 10 -3 6 -8 10 -11 10 -2 0
-4 -4 -4 -10z"/>
<path d="M1303 1916 c-9 -11 -8 -18 8 -32 10 -9 22 -14 26 -11 3 4 0 7 -8 7
-12 0 -11 2 1 11 13 9 12 10 -3 5 -15 -5 -17 -2 -12 14 7 23 5 25 -12 6z"/>
<path d="M150 1787 c0 -9 5 -17 11 -17 8 0 8 -4 0 -13 -8 -10 -7 -14 3 -14 16
0 13 34 -4 51 -7 7 -10 5 -10 -7z"/>
<path d="M2615 1680 c-3 -5 -1 -10 4 -10 6 0 11 5 11 10 0 6 -2 10 -4 10 -3 0
-8 -4 -11 -10z"/>
<path d="M1636 1635 c-3 -8 -1 -15 4 -15 6 0 10 7 10 15 0 8 -2 15 -4 15 -2 0
-6 -7 -10 -15z"/>
<path d="M1545 1569 c-4 -6 -4 -13 -1 -16 3 -4 6 -1 6 6 0 7 5 9 12 5 7 -4 8
-3 4 4 -9 15 -13 15 -21 1z"/>
<path d="M789 1440 c-13 -10 -19 -19 -13 -20 6 0 19 9 29 20 23 26 14 26 -16
0z"/>
<path d="M995 1109 c-4 -6 -4 -13 -1 -16 3 -4 6 0 6 7 0 9 5 7 16 -6 14 -18
15 -18 4 4 -12 25 -16 27 -25 11z"/>
<path d="M297 1009 c7 -7 15 -10 18 -7 3 3 -2 9 -12 12 -14 6 -15 5 -6 -5z"/>
<path d="M305 980 c3 -5 8 -10 11 -10 2 0 4 5 4 10 0 6 -5 10 -11 10 -5 0 -7
-4 -4 -10z"/>
<path d="M2399 978 c-5 -18 -6 -38 -1 -34 7 8 12 36 6 36 -2 0 -4 -1 -5 -2z"/>
<path d="M300 901 c0 -6 4 -13 10 -16 6 -3 7 1 4 9 -7 18 -14 21 -14 7z"/>
<path d="M2245 780 c3 -5 8 -10 11 -10 2 0 4 5 4 10 0 6 -5 10 -11 10 -5 0 -7
-4 -4 -10z"/>
<path d="M2250 749 c0 -5 5 -7 10 -4 6 3 10 8 10 11 0 2 -4 4 -10 4 -5 0 -10
-5 -10 -11z"/>
<path d="M270 491 c0 -6 4 -13 10 -16 6 -3 7 1 4 9 -7 18 -14 21 -14 7z"/>
<path d="M1433 375 c0 -8 4 -12 9 -9 5 3 6 10 3 15 -9 13 -12 11 -12 -6z"/>
</g>
</svg>
