<?xml version="1.0" encoding="UTF-8" standalone="no"?>
<svg width="118px" height="96px" viewBox="0 0 118 96" version="1.1" xmlns="http://www.w3.org/2000/svg" xmlns:xlink="http://www.w3.org/1999/xlink">
    <!-- Generator: Sketch 3.8.3 (29802) - http://www.bohemiancoding.com/sketch -->
    <title>SECTION 7</title>
    <desc>Created with Sketch.</desc>
    <defs></defs>
    <g id="Welcome" stroke="none" stroke-width="1" fill="none" fill-rule="evenodd">
        <g id="Desktop-HD" transform="translate(-901.000000, -4326.000000)" fill="#F4F3F2">
            <g id="SECTION-7" transform="translate(0.000000, 4129.000000)">
                <path d="M967.769819,228.459581 L982.739543,228.459581 L980.991063,245.001631 L967.766557,245.001631 L967.766557,293 L947.9037,293 L947.9037,245.001631 L938,245.001631 L938,228.459581 L947.9037,228.459581 L947.9037,218.497163 C947.9037,211.429304 949.57389,206.079479 952.914268,202.447688 C956.254647,198.815896 961.750178,197 969.400863,197 L982.62537,197 L982.62537,213.54205 L974.352713,213.54205 C972.839104,213.54205 971.625607,213.668184 970.712223,213.920453 C969.798838,214.172721 969.138809,214.629413 968.732135,215.29053 C968.325461,215.951646 968.063407,216.621462 967.945972,217.299976 C967.828536,217.978491 967.769819,218.939719 967.769819,220.183662 L967.769819,228.456319 L967.769819,228.459581 Z" id="Shape"></path>
            </g>
        </g>
    </g>
</svg>