<?xml version="1.0" encoding="UTF-8" standalone="no"?>
<svg width="119px" height="96px" viewBox="0 0 119 96" version="1.1" xmlns="http://www.w3.org/2000/svg" xmlns:xlink="http://www.w3.org/1999/xlink">
    <!-- Generator: Sketch 3.8.3 (29802) - http://www.bohemiancoding.com/sketch -->
    <title>Shape</title>
    <desc>Created with Sketch.</desc>
    <defs></defs>
    <g id="Welcome" stroke="none" stroke-width="1" fill="none" fill-rule="evenodd">
        <g id="Desktop-HD" transform="translate(-412.000000, -4326.000000)" fill="#F4F3F2">
            <g id="SECTION-7" transform="translate(0.000000, 4129.000000)">
                <path d="M530.205539,208.403071 C526.856718,213.303102 522.806493,217.477928 518.054863,220.92755 C518.105263,221.627554 518.130463,222.67756 518.130463,224.077569 C518.130463,230.57641 517.179857,237.06405 515.278645,243.540491 C513.377434,250.016931 510.489216,256.22877 506.613991,262.176007 C502.738767,268.123245 498.125738,273.385877 492.774905,277.963906 C487.424071,282.541935 480.974231,286.191757 473.425384,288.913374 C465.876537,291.634991 457.801286,292.9972 449.199632,293 C435.650348,293 423.25047,289.375377 412,282.126132 C413.750011,282.324933 415.700223,282.424334 417.850637,282.424334 C429.101107,282.424334 439.12657,278.974712 447.927025,272.075469 C442.676992,271.974669 437.977162,270.361859 433.827536,267.237039 C429.67791,264.112219 426.827493,260.124995 425.276283,255.275364 C426.925493,255.524566 428.450103,255.649167 429.850112,255.649167 C432.000525,255.649167 434.125738,255.374765 436.225751,254.825961 C430.625716,253.675154 425.987487,250.887737 422.311064,246.463709 C418.634641,242.039681 416.79643,236.901649 416.79643,231.049613 L416.79643,230.751411 C420.195651,232.652623 423.845474,233.677429 427.745898,233.82583 C424.444678,231.625016 421.819661,228.749398 419.870849,225.198976 C417.922037,221.648554 416.947631,217.79853 416.947631,213.648904 C416.947631,209.250077 418.048038,205.174651 420.248852,201.422628 C426.299689,208.873474 433.662335,214.836111 442.33679,219.310539 C451.011244,223.784967 460.298902,226.272783 470.199764,226.773986 C469.799361,224.872774 469.59916,223.023363 469.59916,221.225751 C469.59916,214.52531 471.962375,208.813274 476.688804,204.089644 C481.415234,199.366015 487.12727,197.0028 493.824911,197 C500.824955,197 506.724592,199.549416 511.523822,204.648248 C516.972656,203.598241 522.098088,201.648029 526.900118,198.797611 C525.049307,204.548847 521.498884,208.999475 516.248852,212.149495 C520.899681,211.648292 525.54911,210.398084 530.197139,208.398871 L530.205539,208.403071 Z" id="Shape"></path>
            </g>
        </g>
    </g>
</svg>